<svg width="32" height="29" viewBox="0 0 32 29" fill="none" xmlns="http://www.w3.org/2000/svg">
<path d="M28 5.30638H22.6875V3.94894C22.6875 2.8383 22.3021 1.90248 21.5312 1.14149C20.7604 0.380496 19.8125 0 18.6875 0H13.3125C12.1875 0 11.2396 0.380496 10.4688 1.14149C9.69792 1.90248 9.3125 2.8383 9.3125 3.94894V5.30638H4C2.875 5.30638 1.92708 5.6766 1.15625 6.41702C0.385417 7.15745 0 8.10355 0 9.25532V14.5C0 15.3638 0.4375 15.7957 1.3125 15.7957V26.3468C1.3125 27.0461 1.58333 27.6631 2.125 28.1979C2.66667 28.7326 3.29167 29 4 29H28C28.7083 29 29.3333 28.7326 29.875 28.1979C30.4167 27.6631 30.6875 27.0461 30.6875 26.3468V15.7957C31.5625 15.7957 32 15.3638 32 14.5V9.25532C32 8.10355 31.6146 7.15745 30.8438 6.41702C30.0729 5.6766 29.125 5.30638 28 5.30638ZM12 3.94894C12 3.57872 12.125 3.27021 12.375 3.0234C12.625 2.7766 12.9375 2.65319 13.3125 2.65319H18.6875C19.0625 2.65319 19.375 2.7766 19.625 3.0234C19.875 3.27021 20 3.57872 20 3.94894V5.30638H12V3.94894ZM4 26.3468V15.7957H12V19.7447C12 20.4851 12.2604 21.1124 12.7812 21.6266C13.3021 22.1408 13.9375 22.3979 14.6875 22.3979H17.3125C18.0625 22.3979 18.6979 22.1408 19.2188 21.6266C19.7396 21.1124 20 20.4851 20 19.7447V15.7957H28V26.3468H4ZM14.6875 19.7447V15.7957H17.3125V19.7447H14.6875ZM29.3125 13.2043H2.6875V9.25532C2.6875 8.35036 3.125 7.89787 4 7.89787H28C28.875 7.89787 29.3125 8.35036 29.3125 9.25532V13.2043Z" fill="white"/>
</svg>
