<svg width="85" height="66" viewBox="0 0 85 66" fill="none" xmlns="http://www.w3.org/2000/svg">
<path d="M10.404 5.09C10.08 4.466 9.63 3.998 9.054 3.686C8.478 3.362 7.812 3.2 7.056 3.2C6.228 3.2 5.49 3.386 4.842 3.758C4.194 4.13 3.684 4.658 3.312 5.342C2.952 6.026 2.772 6.818 2.772 7.718C2.772 8.618 2.952 9.416 3.312 10.112C3.684 10.796 4.194 11.324 4.842 11.696C5.49 12.068 6.228 12.254 7.056 12.254C8.172 12.254 9.078 11.942 9.774 11.318C10.47 10.694 10.896 9.848 11.052 8.78H6.354V7.142H13.248V8.744C13.116 9.716 12.768 10.61 12.204 11.426C11.652 12.242 10.926 12.896 10.026 13.388C9.138 13.868 8.148 14.108 7.056 14.108C5.88 14.108 4.806 13.838 3.834 13.298C2.862 12.746 2.088 11.984 1.512 11.012C0.948 10.04 0.666 8.942 0.666 7.718C0.666 6.494 0.948 5.396 1.512 4.424C2.088 3.452 2.862 2.696 3.834 2.156C4.818 1.604 5.892 1.328 7.056 1.328C8.388 1.328 9.57 1.658 10.602 2.318C11.646 2.966 12.402 3.89 12.87 5.09H10.404ZM24.3619 8.798C24.3619 9.17 24.3379 9.506 24.2899 9.806H16.7119C16.7719 10.598 17.0659 11.234 17.5939 11.714C18.1219 12.194 18.7699 12.434 19.5379 12.434C20.6419 12.434 21.4219 11.972 21.8779 11.048H24.0919C23.7919 11.96 23.2459 12.71 22.4539 13.298C21.6739 13.874 20.7019 14.162 19.5379 14.162C18.5899 14.162 17.7379 13.952 16.9819 13.532C16.2379 13.1 15.6499 12.5 15.2179 11.732C14.7979 10.952 14.5879 10.052 14.5879 9.032C14.5879 8.012 14.7919 7.118 15.1999 6.35C15.6199 5.57 16.2019 4.97 16.9459 4.55C17.7019 4.13 18.5659 3.92 19.5379 3.92C20.4739 3.92 21.3079 4.124 22.0399 4.532C22.7719 4.94 23.3419 5.516 23.7499 6.26C24.1579 6.992 24.3619 7.838 24.3619 8.798ZM22.2199 8.15C22.2079 7.394 21.9379 6.788 21.4099 6.332C20.8819 5.876 20.2279 5.648 19.4479 5.648C18.7399 5.648 18.1339 5.876 17.6299 6.332C17.1259 6.776 16.8259 7.382 16.7299 8.15H22.2199ZM31.3853 3.92C32.1653 3.92 32.8613 4.082 33.4733 4.406C34.0973 4.73 34.5833 5.21 34.9313 5.846C35.2793 6.482 35.4533 7.25 35.4533 8.15V14H33.4193V8.456C33.4193 7.568 33.1973 6.89 32.7533 6.422C32.3093 5.942 31.7033 5.702 30.9353 5.702C30.1673 5.702 29.5553 5.942 29.0993 6.422C28.6553 6.89 28.4333 7.568 28.4333 8.456V14H26.3813V4.082H28.4333V5.216C28.7693 4.808 29.1953 4.49 29.7113 4.262C30.2393 4.034 30.7973 3.92 31.3853 3.92ZM47.1607 8.798C47.1607 9.17 47.1367 9.506 47.0887 9.806H39.5107C39.5707 10.598 39.8647 11.234 40.3927 11.714C40.9207 12.194 41.5687 12.434 42.3367 12.434C43.4407 12.434 44.2207 11.972 44.6767 11.048H46.8907C46.5907 11.96 46.0447 12.71 45.2527 13.298C44.4727 13.874 43.5007 14.162 42.3367 14.162C41.3887 14.162 40.5367 13.952 39.7807 13.532C39.0367 13.1 38.4487 12.5 38.0167 11.732C37.5967 10.952 37.3867 10.052 37.3867 9.032C37.3867 8.012 37.5907 7.118 37.9987 6.35C38.4187 5.57 39.0007 4.97 39.7447 4.55C40.5007 4.13 41.3647 3.92 42.3367 3.92C43.2727 3.92 44.1067 4.124 44.8387 4.532C45.5707 4.94 46.1407 5.516 46.5487 6.26C46.9567 6.992 47.1607 7.838 47.1607 8.798ZM45.0187 8.15C45.0067 7.394 44.7367 6.788 44.2087 6.332C43.6807 5.876 43.0267 5.648 42.2467 5.648C41.5387 5.648 40.9327 5.876 40.4287 6.332C39.9247 6.776 39.6247 7.382 39.5287 8.15H45.0187ZM51.2321 5.522C51.5321 5.018 51.9281 4.628 52.4201 4.352C52.9241 4.064 53.5181 3.92 54.2021 3.92V6.044H53.6801C52.8761 6.044 52.2641 6.248 51.8441 6.656C51.4361 7.064 51.2321 7.772 51.2321 8.78V14H49.1801V4.082H51.2321V5.522ZM55.4043 8.996C55.4043 8 55.6083 7.118 56.0163 6.35C56.4363 5.582 57.0003 4.988 57.7083 4.568C58.4283 4.136 59.2203 3.92 60.0843 3.92C60.8643 3.92 61.5423 4.076 62.1183 4.388C62.7063 4.688 63.1743 5.066 63.5223 5.522V4.082H65.5923V14H63.5223V12.524C63.1743 12.992 62.7003 13.382 62.1003 13.694C61.5003 14.006 60.8163 14.162 60.0483 14.162C59.1963 14.162 58.4163 13.946 57.7083 13.514C57.0003 13.07 56.4363 12.458 56.0163 11.678C55.6083 10.886 55.4043 9.992 55.4043 8.996ZM63.5223 9.032C63.5223 8.348 63.3783 7.754 63.0903 7.25C62.8143 6.746 62.4483 6.362 61.9923 6.098C61.5363 5.834 61.0443 5.702 60.5163 5.702C59.9883 5.702 59.4963 5.834 59.0403 6.098C58.5843 6.35 58.2123 6.728 57.9243 7.232C57.6483 7.724 57.5103 8.312 57.5103 8.996C57.5103 9.68 57.6483 10.28 57.9243 10.796C58.2123 11.312 58.5843 11.708 59.0403 11.984C59.5083 12.248 60.0003 12.38 60.5163 12.38C61.0443 12.38 61.5363 12.248 61.9923 11.984C62.4483 11.72 62.8143 11.336 63.0903 10.832C63.3783 10.316 63.5223 9.716 63.5223 9.032ZM70.3395 0.68V14H68.2875V0.68H70.3395ZM13.872 47.432C13.872 48.328 13.656 49.168 13.224 49.952C12.808 50.736 12.144 51.368 11.232 51.848C10.336 52.328 9.2 52.568 7.824 52.568H5.016V59H1.656V42.248H7.824C9.12 42.248 10.224 42.472 11.136 42.92C12.048 43.368 12.728 43.984 13.176 44.768C13.64 45.552 13.872 46.44 13.872 47.432ZM7.68 49.856C8.608 49.856 9.296 49.648 9.744 49.232C10.192 48.8 10.416 48.2 10.416 47.432C10.416 45.8 9.504 44.984 7.68 44.984H5.016V49.856H7.68ZM19.6176 47.768C20.0496 47.064 20.6096 46.512 21.2976 46.112C22.0016 45.712 22.8016 45.512 23.6976 45.512V49.04H22.8096C21.7536 49.04 20.9536 49.288 20.4096 49.784C19.8816 50.28 19.6176 51.144 19.6176 52.376V59H16.2576V45.704H19.6176V47.768ZM31.8647 59.216C30.5847 59.216 29.4327 58.936 28.4087 58.376C27.3847 57.8 26.5767 56.992 25.9847 55.952C25.4087 54.912 25.1207 53.712 25.1207 52.352C25.1207 50.992 25.4167 49.792 26.0087 48.752C26.6167 47.712 27.4407 46.912 28.4807 46.352C29.5207 45.776 30.6807 45.488 31.9607 45.488C33.2407 45.488 34.4007 45.776 35.4407 46.352C36.4807 46.912 37.2967 47.712 37.8887 48.752C38.4967 49.792 38.8007 50.992 38.8007 52.352C38.8007 53.712 38.4887 54.912 37.8647 55.952C37.2567 56.992 36.4247 57.8 35.3687 58.376C34.3287 58.936 33.1607 59.216 31.8647 59.216ZM31.8647 56.288C32.4727 56.288 33.0407 56.144 33.5687 55.856C34.1127 55.552 34.5447 55.104 34.8647 54.512C35.1847 53.92 35.3447 53.2 35.3447 52.352C35.3447 51.088 35.0087 50.12 34.3367 49.448C33.6807 48.76 32.8727 48.416 31.9127 48.416C30.9527 48.416 30.1447 48.76 29.4887 49.448C28.8487 50.12 28.5287 51.088 28.5287 52.352C28.5287 53.616 28.8407 54.592 29.4647 55.28C30.1047 55.952 30.9047 56.288 31.8647 56.288ZM42.9694 44.12C42.3614 44.12 41.8574 43.936 41.4574 43.568C41.0734 43.184 40.8814 42.712 40.8814 42.152C40.8814 41.592 41.0734 41.128 41.4574 40.76C41.8574 40.376 42.3614 40.184 42.9694 40.184C43.5614 40.184 44.0494 40.376 44.4334 40.76C44.8174 41.128 45.0094 41.592 45.0094 42.152C45.0094 42.712 44.8174 43.184 44.4334 43.568C44.0494 43.936 43.5614 44.12 42.9694 44.12ZM44.6254 61.184C44.6254 62.656 44.2574 63.712 43.5214 64.352C42.8014 65.008 41.7614 65.336 40.4014 65.336H38.9134V62.48H39.8734C40.3854 62.48 40.7454 62.376 40.9534 62.168C41.1614 61.976 41.2654 61.656 41.2654 61.208V45.704H44.6254V61.184ZM60.3051 52.064C60.3051 52.544 60.2731 52.976 60.2091 53.36H50.4891C50.5691 54.32 50.9051 55.072 51.4971 55.616C52.0891 56.16 52.8171 56.432 53.6811 56.432C54.9291 56.432 55.8171 55.896 56.3451 54.824H59.9691C59.5851 56.104 58.8491 57.16 57.7611 57.992C56.6731 58.808 55.3371 59.216 53.7531 59.216C52.4731 59.216 51.3211 58.936 50.2971 58.376C49.2891 57.8 48.4971 56.992 47.9211 55.952C47.3611 54.912 47.0811 53.712 47.0811 52.352C47.0811 50.976 47.3611 49.768 47.9211 48.728C48.4811 47.688 49.2651 46.888 50.2731 46.328C51.2811 45.768 52.4411 45.488 53.7531 45.488C55.0171 45.488 56.1451 45.76 57.1371 46.304C58.1451 46.848 58.9211 47.624 59.4651 48.632C60.0251 49.624 60.3051 50.768 60.3051 52.064ZM56.8251 51.104C56.8091 50.24 56.4971 49.552 55.8891 49.04C55.2811 48.512 54.5371 48.248 53.6571 48.248C52.8251 48.248 52.1211 48.504 51.5451 49.016C50.9851 49.512 50.6411 50.208 50.5131 51.104H56.8251ZM61.8936 52.352C61.8936 50.976 62.1736 49.776 62.7336 48.752C63.2936 47.712 64.0696 46.912 65.0616 46.352C66.0536 45.776 67.1896 45.488 68.4696 45.488C70.1176 45.488 71.4776 45.904 72.5496 46.736C73.6376 47.552 74.3656 48.704 74.7336 50.192H71.1096C70.9176 49.616 70.5896 49.168 70.1256 48.848C69.6776 48.512 69.1176 48.344 68.4456 48.344C67.4856 48.344 66.7256 48.696 66.1656 49.4C65.6056 50.088 65.3256 51.072 65.3256 52.352C65.3256 53.616 65.6056 54.6 66.1656 55.304C66.7256 55.992 67.4856 56.336 68.4456 56.336C69.8056 56.336 70.6936 55.728 71.1096 54.512H74.7336C74.3656 55.952 73.6376 57.096 72.5496 57.944C71.4616 58.792 70.1016 59.216 68.4696 59.216C67.1896 59.216 66.0536 58.936 65.0616 58.376C64.0696 57.8 63.2936 57 62.7336 55.976C62.1736 54.936 61.8936 53.728 61.8936 52.352ZM81.1071 48.464V54.896C81.1071 55.344 81.2111 55.672 81.4191 55.88C81.6431 56.072 82.0111 56.168 82.5231 56.168H84.0831V59H81.9711C79.1391 59 77.7231 57.624 77.7231 54.872V48.464H76.1391V45.704H77.7231V42.416H81.1071V45.704H84.0831V48.464H81.1071Z" fill="white"/>
</svg>
