<svg width="86" height="57" viewBox="0 0 86 57" fill="none" xmlns="http://www.w3.org/2000/svg">
<path d="M10.404 5.09C10.08 4.466 9.63 3.998 9.054 3.686C8.478 3.362 7.812 3.2 7.056 3.2C6.228 3.2 5.49 3.386 4.842 3.758C4.194 4.13 3.684 4.658 3.312 5.342C2.952 6.026 2.772 6.818 2.772 7.718C2.772 8.618 2.952 9.416 3.312 10.112C3.684 10.796 4.194 11.324 4.842 11.696C5.49 12.068 6.228 12.254 7.056 12.254C8.172 12.254 9.078 11.942 9.774 11.318C10.47 10.694 10.896 9.848 11.052 8.78H6.354V7.142H13.248V8.744C13.116 9.716 12.768 10.61 12.204 11.426C11.652 12.242 10.926 12.896 10.026 13.388C9.138 13.868 8.148 14.108 7.056 14.108C5.88 14.108 4.806 13.838 3.834 13.298C2.862 12.746 2.088 11.984 1.512 11.012C0.948 10.04 0.666 8.942 0.666 7.718C0.666 6.494 0.948 5.396 1.512 4.424C2.088 3.452 2.862 2.696 3.834 2.156C4.818 1.604 5.892 1.328 7.056 1.328C8.388 1.328 9.57 1.658 10.602 2.318C11.646 2.966 12.402 3.89 12.87 5.09H10.404ZM24.3619 8.798C24.3619 9.17 24.3379 9.506 24.2899 9.806H16.7119C16.7719 10.598 17.0659 11.234 17.5939 11.714C18.1219 12.194 18.7699 12.434 19.5379 12.434C20.6419 12.434 21.4219 11.972 21.8779 11.048H24.0919C23.7919 11.96 23.2459 12.71 22.4539 13.298C21.6739 13.874 20.7019 14.162 19.5379 14.162C18.5899 14.162 17.7379 13.952 16.9819 13.532C16.2379 13.1 15.6499 12.5 15.2179 11.732C14.7979 10.952 14.5879 10.052 14.5879 9.032C14.5879 8.012 14.7919 7.118 15.1999 6.35C15.6199 5.57 16.2019 4.97 16.9459 4.55C17.7019 4.13 18.5659 3.92 19.5379 3.92C20.4739 3.92 21.3079 4.124 22.0399 4.532C22.7719 4.94 23.3419 5.516 23.7499 6.26C24.1579 6.992 24.3619 7.838 24.3619 8.798ZM22.2199 8.15C22.2079 7.394 21.9379 6.788 21.4099 6.332C20.8819 5.876 20.2279 5.648 19.4479 5.648C18.7399 5.648 18.1339 5.876 17.6299 6.332C17.1259 6.776 16.8259 7.382 16.7299 8.15H22.2199ZM31.3853 3.92C32.1653 3.92 32.8613 4.082 33.4733 4.406C34.0973 4.73 34.5833 5.21 34.9313 5.846C35.2793 6.482 35.4533 7.25 35.4533 8.15V14H33.4193V8.456C33.4193 7.568 33.1973 6.89 32.7533 6.422C32.3093 5.942 31.7033 5.702 30.9353 5.702C30.1673 5.702 29.5553 5.942 29.0993 6.422C28.6553 6.89 28.4333 7.568 28.4333 8.456V14H26.3813V4.082H28.4333V5.216C28.7693 4.808 29.1953 4.49 29.7113 4.262C30.2393 4.034 30.7973 3.92 31.3853 3.92ZM47.1607 8.798C47.1607 9.17 47.1367 9.506 47.0887 9.806H39.5107C39.5707 10.598 39.8647 11.234 40.3927 11.714C40.9207 12.194 41.5687 12.434 42.3367 12.434C43.4407 12.434 44.2207 11.972 44.6767 11.048H46.8907C46.5907 11.96 46.0447 12.71 45.2527 13.298C44.4727 13.874 43.5007 14.162 42.3367 14.162C41.3887 14.162 40.5367 13.952 39.7807 13.532C39.0367 13.1 38.4487 12.5 38.0167 11.732C37.5967 10.952 37.3867 10.052 37.3867 9.032C37.3867 8.012 37.5907 7.118 37.9987 6.35C38.4187 5.57 39.0007 4.97 39.7447 4.55C40.5007 4.13 41.3647 3.92 42.3367 3.92C43.2727 3.92 44.1067 4.124 44.8387 4.532C45.5707 4.94 46.1407 5.516 46.5487 6.26C46.9567 6.992 47.1607 7.838 47.1607 8.798ZM45.0187 8.15C45.0067 7.394 44.7367 6.788 44.2087 6.332C43.6807 5.876 43.0267 5.648 42.2467 5.648C41.5387 5.648 40.9327 5.876 40.4287 6.332C39.9247 6.776 39.6247 7.382 39.5287 8.15H45.0187ZM51.2321 5.522C51.5321 5.018 51.9281 4.628 52.4201 4.352C52.9241 4.064 53.5181 3.92 54.2021 3.92V6.044H53.6801C52.8761 6.044 52.2641 6.248 51.8441 6.656C51.4361 7.064 51.2321 7.772 51.2321 8.78V14H49.1801V4.082H51.2321V5.522ZM55.4043 8.996C55.4043 8 55.6083 7.118 56.0163 6.35C56.4363 5.582 57.0003 4.988 57.7083 4.568C58.4283 4.136 59.2203 3.92 60.0843 3.92C60.8643 3.92 61.5423 4.076 62.1183 4.388C62.7063 4.688 63.1743 5.066 63.5223 5.522V4.082H65.5923V14H63.5223V12.524C63.1743 12.992 62.7003 13.382 62.1003 13.694C61.5003 14.006 60.8163 14.162 60.0483 14.162C59.1963 14.162 58.4163 13.946 57.7083 13.514C57.0003 13.07 56.4363 12.458 56.0163 11.678C55.6083 10.886 55.4043 9.992 55.4043 8.996ZM63.5223 9.032C63.5223 8.348 63.3783 7.754 63.0903 7.25C62.8143 6.746 62.4483 6.362 61.9923 6.098C61.5363 5.834 61.0443 5.702 60.5163 5.702C59.9883 5.702 59.4963 5.834 59.0403 6.098C58.5843 6.35 58.2123 6.728 57.9243 7.232C57.6483 7.724 57.5103 8.312 57.5103 8.996C57.5103 9.68 57.6483 10.28 57.9243 10.796C58.2123 11.312 58.5843 11.708 59.0403 11.984C59.5083 12.248 60.0003 12.38 60.5163 12.38C61.0443 12.38 61.5363 12.248 61.9923 11.984C62.4483 11.72 62.8143 11.336 63.0903 10.832C63.3783 10.316 63.5223 9.716 63.5223 9.032ZM70.3395 0.68V14H68.2875V0.68H70.3395Z" fill="white"/>
<path d="M14.328 38.576C14.328 39.552 14.104 40.448 13.656 41.264C13.208 42.064 12.52 42.712 11.592 43.208C10.664 43.704 9.512 43.952 8.136 43.952H5.592V50H1.488V33.152H8.136C9.48 33.152 10.616 33.384 11.544 33.848C12.472 34.312 13.168 34.952 13.632 35.768C14.096 36.584 14.328 37.52 14.328 38.576ZM7.824 40.688C8.608 40.688 9.192 40.504 9.576 40.136C9.96 39.768 10.152 39.248 10.152 38.576C10.152 37.904 9.96 37.384 9.576 37.016C9.192 36.648 8.608 36.464 7.824 36.464H5.592V40.688H7.824ZM20.5686 38.84C21.0486 38.104 21.6486 37.528 22.3686 37.112C23.0886 36.68 23.8886 36.464 24.7686 36.464V40.808H23.6406C22.6166 40.808 21.8486 41.032 21.3366 41.48C20.8246 41.912 20.5686 42.68 20.5686 43.784V50H16.4646V36.608H20.5686V38.84ZM32.8262 50.192C31.5142 50.192 30.3302 49.912 29.2742 49.352C28.2342 48.792 27.4102 47.992 26.8022 46.952C26.2102 45.912 25.9142 44.696 25.9142 43.304C25.9142 41.928 26.2182 40.72 26.8262 39.68C27.4342 38.624 28.2662 37.816 29.3222 37.256C30.3782 36.696 31.5622 36.416 32.8742 36.416C34.1862 36.416 35.3702 36.696 36.4262 37.256C37.4822 37.816 38.3142 38.624 38.9222 39.68C39.5302 40.72 39.8342 41.928 39.8342 43.304C39.8342 44.68 39.5222 45.896 38.8982 46.952C38.2902 47.992 37.4502 48.792 36.3782 49.352C35.3222 49.912 34.1382 50.192 32.8262 50.192ZM32.8262 46.64C33.6102 46.64 34.2742 46.352 34.8182 45.776C35.3782 45.2 35.6582 44.376 35.6582 43.304C35.6582 42.232 35.3862 41.408 34.8422 40.832C34.3142 40.256 33.6582 39.968 32.8742 39.968C32.0742 39.968 31.4102 40.256 30.8822 40.832C30.3542 41.392 30.0902 42.216 30.0902 43.304C30.0902 44.376 30.3462 45.2 30.8582 45.776C31.3862 46.352 32.0422 46.64 32.8262 46.64ZM44.0514 35.216C43.3314 35.216 42.7394 35.008 42.2754 34.592C41.8274 34.16 41.6034 33.632 41.6034 33.008C41.6034 32.368 41.8274 31.84 42.2754 31.424C42.7394 30.992 43.3314 30.776 44.0514 30.776C44.7554 30.776 45.3314 30.992 45.7794 31.424C46.2434 31.84 46.4754 32.368 46.4754 33.008C46.4754 33.632 46.2434 34.16 45.7794 34.592C45.3314 35.008 44.7554 35.216 44.0514 35.216ZM46.1154 51.728C46.1154 53.376 45.6994 54.56 44.8674 55.28C44.0354 56.016 42.8754 56.384 41.3874 56.384H39.7794V52.904H40.7634C41.2114 52.904 41.5314 52.816 41.7234 52.64C41.9154 52.464 42.0114 52.176 42.0114 51.776V36.608H46.1154V51.728ZM61.6901 43.088C61.6901 43.472 61.6661 43.872 61.6181 44.288H52.3301C52.3941 45.12 52.6581 45.76 53.1221 46.208C53.6021 46.64 54.1861 46.856 54.8741 46.856C55.8981 46.856 56.6101 46.424 57.0101 45.56H61.3781C61.1541 46.44 60.7461 47.232 60.1541 47.936C59.5781 48.64 58.8501 49.192 57.9701 49.592C57.0901 49.992 56.1061 50.192 55.0181 50.192C53.7061 50.192 52.5381 49.912 51.5141 49.352C50.4901 48.792 49.6901 47.992 49.1141 46.952C48.5381 45.912 48.2501 44.696 48.2501 43.304C48.2501 41.912 48.5301 40.696 49.0901 39.656C49.6661 38.616 50.4661 37.816 51.4901 37.256C52.5141 36.696 53.6901 36.416 55.0181 36.416C56.3141 36.416 57.4661 36.688 58.4741 37.232C59.4821 37.776 60.2661 38.552 60.8261 39.56C61.4021 40.568 61.6901 41.744 61.6901 43.088ZM57.4901 42.008C57.4901 41.304 57.2501 40.744 56.7701 40.328C56.2901 39.912 55.6901 39.704 54.9701 39.704C54.2821 39.704 53.6981 39.904 53.2181 40.304C52.7541 40.704 52.4661 41.272 52.3541 42.008H57.4901ZM63.0392 43.304C63.0392 41.912 63.3192 40.696 63.8792 39.656C64.4552 38.616 65.2472 37.816 66.2552 37.256C67.2792 36.696 68.4472 36.416 69.7592 36.416C71.4392 36.416 72.8392 36.856 73.9592 37.736C75.0952 38.616 75.8392 39.856 76.1912 41.456H71.8232C71.4552 40.432 70.7432 39.92 69.6872 39.92C68.9352 39.92 68.3352 40.216 67.8872 40.808C67.4392 41.384 67.2152 42.216 67.2152 43.304C67.2152 44.392 67.4392 45.232 67.8872 45.824C68.3352 46.4 68.9352 46.688 69.6872 46.688C70.7432 46.688 71.4552 46.176 71.8232 45.152H76.1912C75.8392 46.72 75.0952 47.952 73.9592 48.848C72.8232 49.744 71.4232 50.192 69.7592 50.192C68.4472 50.192 67.2792 49.912 66.2552 49.352C65.2472 48.792 64.4552 47.992 63.8792 46.952C63.3192 45.912 63.0392 44.696 63.0392 43.304ZM85.8504 46.52V50H83.7624C82.2744 50 81.1144 49.64 80.2824 48.92C79.4504 48.184 79.0344 46.992 79.0344 45.344V40.016H77.4024V36.608H79.0344V33.344H83.1384V36.608H85.8264V40.016H83.1384V45.392C83.1384 45.792 83.2344 46.08 83.4264 46.256C83.6184 46.432 83.9384 46.52 84.3864 46.52H85.8504Z" fill="#0A72AD"/>
</svg>
