<svg width="33" height="33" viewBox="0 0 33 33" fill="none" xmlns="http://www.w3.org/2000/svg">
<path d="M28.7529 2.28125H20.3516C20.0903 2.28106 19.8397 2.38428 19.6543 2.56836L2.8584 19.3643C2.49064 19.7338 2.28418 20.234 2.28418 20.7554C2.28418 21.2768 2.49064 21.7769 2.8584 22.1465L10.8565 30.1445C11.226 30.5123 11.7262 30.7188 12.2476 30.7188C12.7689 30.7188 13.2691 30.5123 13.6387 30.1445L30.4277 13.3555C30.6118 13.1701 30.715 12.9194 30.7149 12.6582V4.25C30.7161 3.99168 30.6663 3.73567 30.5682 3.49668C30.4702 3.2577 30.3258 3.04047 30.1435 2.85749C29.9611 2.67451 29.7444 2.5294 29.5057 2.43051C29.2671 2.33161 29.0113 2.28089 28.7529 2.28125V2.28125Z" stroke="white" stroke-width="3" stroke-linecap="round" stroke-linejoin="round"/>
</svg>
