<svg width="35" height="35" viewBox="0 0 35 35" fill="none" xmlns="http://www.w3.org/2000/svg">
<path d="M29.7529 3.28125H21.3516C21.0903 3.28106 20.8397 3.38428 20.6543 3.56836L3.8584 20.3643C3.49064 20.7338 3.28418 21.234 3.28418 21.7554C3.28418 22.2768 3.49064 22.7769 3.8584 23.1465L11.8565 31.1445C12.226 31.5123 12.7262 31.7188 13.2476 31.7188C13.7689 31.7188 14.2691 31.5123 14.6387 31.1445L31.4277 14.3555C31.6118 14.1701 31.715 13.9194 31.7149 13.6582V5.25C31.7161 4.99168 31.6663 4.73567 31.5682 4.49668C31.4702 4.2577 31.3258 4.04047 31.1435 3.85749C30.9611 3.67451 30.7444 3.5294 30.5057 3.43051C30.2671 3.33161 30.0113 3.28089 29.7529 3.28125V3.28125Z" stroke="white" stroke-width="3" stroke-linecap="round" stroke-linejoin="round"/>
<path d="M26.25 10.9375C25.8174 10.9375 25.3944 10.8092 25.0347 10.5688C24.675 10.3285 24.3946 9.98683 24.229 9.58712C24.0634 9.18741 24.0201 8.74757 24.1045 8.32324C24.1889 7.89891 24.3973 7.50913 24.7032 7.20321C25.0091 6.89728 25.3989 6.68894 25.8232 6.60453C26.2476 6.52013 26.6874 6.56345 27.0871 6.72901C27.4868 6.89458 27.8285 7.17496 28.0688 7.53469C28.3092 7.89442 28.4375 8.31735 28.4375 8.75C28.4375 9.33016 28.207 9.88656 27.7968 10.2968C27.3866 10.707 26.8302 10.9375 26.25 10.9375Z" fill="white"/>
</svg>
