<svg width="44" height="44" viewBox="0 0 44 44" fill="none" xmlns="http://www.w3.org/2000/svg">
<path d="M40.6053 17.7031H29.6053C29.4162 17.7031 29.2615 17.8578 29.2615 18.0469V20.1094C29.2615 20.2984 29.4162 20.4531 29.6053 20.4531H40.6053C40.7943 20.4531 40.949 20.2984 40.949 20.1094V18.0469C40.949 17.8578 40.7943 17.7031 40.6053 17.7031ZM34.8475 23.5469H29.6053C29.4162 23.5469 29.2615 23.7016 29.2615 23.8906V25.9531C29.2615 26.1422 29.4162 26.2969 29.6053 26.2969H34.8475C35.0365 26.2969 35.1912 26.1422 35.1912 25.9531V23.8906C35.1912 23.7016 35.0365 23.5469 34.8475 23.5469ZM20.5088 13.8574H18.6482C18.3818 13.8574 18.167 14.0723 18.167 14.3387V24.9949C18.167 25.1496 18.24 25.2914 18.3646 25.3816L24.7627 30.048C24.9775 30.2027 25.2783 30.1598 25.433 29.9449L26.5373 28.4367V28.4324C26.692 28.2176 26.6447 27.9168 26.4299 27.7621L20.9857 23.8262V14.3387C20.99 14.0723 20.7709 13.8574 20.5088 13.8574Z" fill="white"/>
<path d="M34.5813 28.9566H32.0977C31.8571 28.9566 31.6293 29.0812 31.5004 29.2874C30.9547 30.1511 30.3188 30.9503 29.5883 31.6808C28.3293 32.9398 26.8641 33.9281 25.2356 34.6156C23.5469 35.3288 21.7551 35.6898 19.9074 35.6898C18.0555 35.6898 16.2637 35.3288 14.5793 34.6156C12.9508 33.9281 11.4856 32.9398 10.2266 31.6808C8.96761 30.4218 7.97933 28.9566 7.29183 27.3281C6.57855 25.6437 6.21761 23.8519 6.21761 21.9999C6.21761 20.148 6.57855 18.3605 7.29183 16.6718C7.97933 15.0433 8.96761 13.5781 10.2266 12.3191C11.4856 11.0601 12.9508 10.0718 14.5793 9.38432C16.2637 8.67104 18.0598 8.3101 19.9074 8.3101C21.7594 8.3101 23.5512 8.67104 25.2356 9.38432C26.8641 10.0718 28.3293 11.0601 29.5883 12.3191C30.3188 13.0496 30.9547 13.8488 31.5004 14.7124C31.6293 14.9187 31.8571 15.0433 32.0977 15.0433H34.5813C34.8778 15.0433 35.0668 14.7339 34.9336 14.4718C32.1321 8.89877 26.4516 5.27651 20.1094 5.20346C10.8239 5.08744 3.11097 12.6886 3.09378 21.9656C3.07659 31.2597 10.609 38.8007 19.9032 38.8007C26.327 38.8007 32.102 35.1656 34.9336 29.5281C35.0668 29.266 34.8735 28.9566 34.5813 28.9566Z" fill="white"/>
</svg>
